<svg xmlns="http://www.w3.org/2000/svg" viewBox="0 0 512 512" width="512" height="512">
  <circle cx="256" cy="256" r="256" fill="#0f1628"/>
  <path d="M322.7,146.2c-16.6-8.8-35.9-9.1-52.7-0.8c-31.6,15.5-47.5,52.1-36.6,85.7c6.2,19.1,19.5,34.2,36.7,42.9 c-50.4,24.7-67.2,85.9-37.7,132.1c6.7,10.5,19,16.1,31.2,15.4c15.8-0.9,32.3-10.9,32.3-28c0-14.5-11.7-26.2-26.2-26.2 c-11.9,0-22.1,8-25.3,19.2l-0.3,0.8c-14.3-28.3-5.4-63.1,21-82c41.9-30.1,10.3-93.7-41.4-85c-2.1-4.5-3.7-9.3-4.5-14.3 c-8.4-39.9,25.2-57.8,50-57.9C336.2,147.9,322.7,146.2,322.7,146.2z" fill="url(#gradient1)"/>
  <path d="M390.4,174.1l-24.5,24.5l-11-11c-3.9-3.9-10.2-3.9-14.1,0c-3.9,3.9-3.9,10.2,0,14.1l18,18c1.9,1.9,4.4,2.9,7.1,2.9 c2.6,0,5.2-1,7.1-2.9l31.6-31.6c3.9-3.9,3.9-10.2,0-14.1C400.7,170.2,394.3,170.2,390.4,174.1z" fill="url(#gradient2)"/>
  
  <defs>
    <linearGradient id="gradient1" x1="0%" y1="0%" x2="100%" y2="100%">
      <stop offset="0%" stop-color="#a6f77b" />
      <stop offset="100%" stop-color="#2196f3" />
    </linearGradient>
    <linearGradient id="gradient2" x1="0%" y1="0%" x2="100%" y2="100%">
      <stop offset="0%" stop-color="#a6f77b" />
      <stop offset="100%" stop-color="#a6f77b" />
    </linearGradient>
  </defs>
</svg> 