<svg xmlns="http://www.w3.org/2000/svg" width="32" height="32" viewBox="0 0 32 32">
  <style>
    path { fill: #646cff; }
    @media (prefers-color-scheme: dark) {
      path { fill: #747bff; }
    }
  </style>
  <path d="M27.3417 4.5c-.4609 0-.9297.0117-1.4063.0351-4.6953.2344-10.5703 2.0117-16.2656 6.3867-4.0351 3.0937-6.7227 4.8438-7.5664 4.5508-.8438-.293-1.1016-2.5039-1.0547-4.582 0-.3047-.2109-.5625-.5-.6562-.293-.0898-.6055 0-.8086.2421C-1.43 12.0391-.445 13.6875 1.4885 14.6953c1.9297 1.0078 4.9102.4492 8.9453-2.6484 5.2422-4.0274 10.5664-5.625 14.7344-5.8399 4.168-.2148 7.1016.9961 7.0352 3.3477-.0586 2.3515-3.086 4.9219-8.1445 7.0312-5.0586 2.1094-11.0625 3.3399-14.3594 1.8399-3.2969-1.5-3.6133-5.1055-2.0469-8.2071.0977-.1875.0859-.4141-.0273-.5898-.1133-.1758-.3047-.2813-.5039-.2774-.2696.0157-.4883.2011-.5664.4688-1.8633 3.7539-1.5273 8.0078 2.8281 10.0078 4.3555 2 11.0508.6055 16.7227-1.7734 5.6758-2.3789 9.1562-5.5117 9.2305-8.5078C35.3807 6.3047 32.1667 4.5 27.3417 4.5z"/>
</svg>